# xmcd
#
# Track frame offsets:
#	150
#	23991
#	44316
#	66738
#	99680
#	120727
#	161575
#	177134
#	200918
#	223705
#
# Disc length: 3342 seconds
#
# Revision: 1
# Processed by: cddbd v1.5.2PL0 Copyright (c) Steve Scherf et al.
# Submitted via: EZCDAudioConverter 3.0.6.1
#
DISCID=990d0c0a
DTITLE=Jessy Martens and Band - Touch My Blues Away (Live)
DYEAR=2015
DGENRE=Blues
TTITLE0=You'r Not The One I Need
TTITLE1=One Minute Love
TTITLE2=Hey Mister
TTITLE3=I Don't Need No Doctor
TTITLE4=Pack Of Lies
TTITLE5=Touch My Blues Away
TTITLE6=Stranger
TTITLE7=Little Mama Don't Play
TTITLE8=Brand New Ride
TTITLE9=How Beautiful
EXTD=
EXTT0=
EXTT1=
EXTT2=
EXTT3=
EXTT4=
EXTT5=
EXTT6=
EXTT7=
EXTT8=
EXTT9=
PLAYORDER=
